<svg xmlns="http://www.w3.org/2000/svg" id="Layer_1" enable-background="new 0 0 64 64" viewBox="0 0 64 64"><circle cx="32" cy="32" r="32" fill="#e24b4b"/><path fill="#fff" d="M36.6,53h-9.2c-2.6,0-4.78-1.95-5.06-4.53l-2.47-22.59c-0.07-0.68,0.42-1.29,1.09-1.36
					c0.68-0.07,1.29,0.42,1.36,1.09L24.8,48.2c0.15,1.33,1.27,2.33,2.6,2.33h9.2c1.34,0,2.46-1,2.6-2.33L41.7,25.6
					c0.07-0.68,0.68-1.17,1.36-1.09c0.68,0.07,1.17,0.69,1.09,1.36l-2.49,22.59C41.38,51.05,39.2,53,36.6,53z"/><path fill="#fff" d="M45.5 26.97H18.5c-.68 0-1.24-.55-1.24-1.24C17.26 17.61 23.87 11 32 11c8.13 0 14.74 6.61 14.74 14.74C46.74 26.42 46.19 26.97 45.5 26.97zM19.79 24.5h24.41C43.59 18.32 38.35 13.47 32 13.47 25.65 13.47 20.41 18.32 19.79 24.5zM32.01 43.79c-3.17 0-5.75-2.58-5.75-5.75 0-3.17 2.58-5.75 5.75-5.75 3.17 0 5.75 2.58 5.75 5.75C37.76 41.21 35.18 43.79 32.01 43.79zM32.01 34.76c-1.81 0-3.28 1.47-3.28 3.28 0 1.81 1.47 3.28 3.28 3.28 1.81 0 3.28-1.47 3.28-3.28C35.29 36.23 33.82 34.76 32.01 34.76z"/><g><path fill="#fff" d="M40.71 47.04H23.29c-.68 0-1.24-.55-1.24-1.24 0-.68.55-1.24 1.24-1.24h17.42c.68 0 1.24.55 1.24 1.24C41.95 46.48 41.39 47.04 40.71 47.04zM42.42 31.52H21.6c-.68 0-1.24-.55-1.24-1.24 0-.68.55-1.24 1.24-1.24h20.83c.68 0 1.24.55 1.24 1.24C43.66 30.97 43.11 31.52 42.42 31.52z"/></g></svg>