<svg xmlns="http://www.w3.org/2000/svg" xmlns:xlink="http://www.w3.org/1999/xlink" data-name="Layer 1" viewBox="0 0 512 512"><defs><linearGradient id="a" x1="117" x2="117" y1="6.71" y2="499.673" gradientUnits="userSpaceOnUse"><stop offset="0" stop-color="#00efd1"/><stop offset="1" stop-color="#00acea"/></linearGradient><linearGradient id="b" x1="90.898" x2="90.898" y1="6.71" y2="499.673" xlink:href="#a"/><linearGradient id="c" x1="140.185" x2="140.185" y1="6.71" y2="499.673" xlink:href="#a"/><linearGradient id="d" x1="395" x2="395" y1="6.71" y2="499.673" xlink:href="#a"/><linearGradient id="e" x1="369.35" x2="369.35" y1="6.71" y2="499.673" xlink:href="#a"/><linearGradient id="f" x1="418.638" x2="418.638" y1="6.71" y2="499.673" xlink:href="#a"/><linearGradient id="g" x1="255.961" x2="255.961" y1="6.71" y2="499.673" xlink:href="#a"/><linearGradient id="h" x1="256" x2="256" y1="6.71" y2="499.673" xlink:href="#a"/><linearGradient id="i" x1="389.481" x2="389.481" y1="6.71" y2="499.673" xlink:href="#a"/><linearGradient id="j" x1="122.519" x2="122.519" y1="6.71" y2="499.673" xlink:href="#a"/><linearGradient id="k" x1="340.796" x2="340.796" y1="6.71" y2="499.673" xlink:href="#a"/><linearGradient id="l" x1="171.204" x2="171.204" y1="6.71" y2="499.673" xlink:href="#a"/></defs><g data-name="&lt;Group&gt;"><path fill="url(#a)" d="M176.1,412H156v-8.564c2-1.793,4.1-3.732,6.153-5.844A66.713,66.713,0,0,0,181,350.605V300h6.493a7.807,7.807,0,0,0,8-7.77A47.318,47.318,0,0,0,148.032,245H107.411a27.223,27.223,0,0,0-15.676,4.94A66,66,0,0,0,50,311.175v39.43a67.045,67.045,0,0,0,19.192,46.987,75.462,75.462,0,0,0,8.808,7.6V412H57.452A47.607,47.607,0,0,0,10,459.57v34.876c0,4.419,3.582,7.554,8,7.554H215.547c4.418,0,8.453-3.135,8.453-7.554V459.57C224,433.405,202.26,412,176.1,412ZM107.411,261h40.621a31.671,31.671,0,0,1,30.43,23H107.411a11.5,11.5,0,1,1,0-23ZM79.946,276.49A27.764,27.764,0,0,0,92.3,295.942a45.962,45.962,0,0,1-26.4,11.974A50,50,0,0,1,79.946,276.49ZM66,350.605V323.949C77,323.207,94.722,319,110.107,300H165v50.605a50.978,50.978,0,0,1-14.5,35.825,48.193,48.193,0,0,1-70,0A50.986,50.986,0,0,1,66,350.605Zm49.845,66.888a65.918,65.918,0,0,0,24.155-4.7v2.884l-23.641,14.671L94,415.788v-2.1A64.739,64.739,0,0,0,115.845,417.493ZM26,459.57A31.589,31.589,0,0,1,57.452,428H83.389L108,444.163V486H26ZM208,486H124V444.277L149.909,428H176.1C193.438,428,208,442.228,208,459.57Z" data-name="&lt;Compound Path&gt;"/><path fill="url(#b)" d="M108.755,339.354a8,8,0,0,0-16,0,1.858,1.858,0,0,1-3.715,0,8,8,0,0,0-16,0,17.858,17.858,0,0,0,35.715,0Z" data-name="&lt;Path&gt;"/><path fill="url(#c)" d="M140.185,357.211a17.878,17.878,0,0,0,17.858-17.857,8,8,0,0,0-16,0,1.858,1.858,0,0,1-3.715,0,8,8,0,0,0-16,0A17.878,17.878,0,0,0,140.185,357.211Z" data-name="&lt;Path&gt;"/><path fill="url(#d)" d="M454.548,412H434v-8.564c2-1.793,4.6-3.732,6.653-5.844A67.2,67.2,0,0,0,460,350.605V300h5.946a7.807,7.807,0,0,0,8-7.77A47.318,47.318,0,0,0,426.485,245H385.864a27.932,27.932,0,0,0-15.9,4.94A66.2,66.2,0,0,0,328,311.175v39.43a67.049,67.049,0,0,0,19.191,46.987,75.553,75.553,0,0,0,8.809,7.6V412h-20.1c-26.165,0-47.9,21.4-47.9,47.57v34.876c0,4.419,4.035,7.554,8.453,7.554H494c4.418,0,8-3.135,8-7.554V459.57A47.607,47.607,0,0,0,454.548,412ZM385.864,261h40.621a31.671,31.671,0,0,1,30.43,23H385.864a11.5,11.5,0,1,1,0-23ZM358.4,276.49a27.763,27.763,0,0,0,12.352,19.452,45.955,45.955,0,0,1-26.4,11.974A50,50,0,0,1,358.4,276.49ZM344,350.605V323.949c11-.742,29.175-4.949,44.559-23.949H444v50.605a51.249,51.249,0,0,1-14.772,35.825,48.7,48.7,0,0,1-70.431,0A51.274,51.274,0,0,1,344,350.605Zm49.845,66.888a65.918,65.918,0,0,0,24.155-4.7v2.884l-23.641,14.671L372,415.788v-2.1A64.739,64.739,0,0,0,393.845,417.493ZM304,459.57c0-17.342,14.562-31.57,31.9-31.57h25.937L386,444.163V486H304ZM486,486H402V444.277L428.362,428h26.186A31.589,31.589,0,0,1,486,459.57Z" data-name="&lt;Compound Path&gt;"/><path fill="url(#e)" d="M387.208,339.354a8,8,0,0,0-16,0,1.858,1.858,0,0,1-3.715,0,8,8,0,0,0-16,0,17.858,17.858,0,0,0,35.715,0Z" data-name="&lt;Path&gt;"/><path fill="url(#f)" d="M418.638,357.211A17.878,17.878,0,0,0,436.5,339.354a8,8,0,1,0-16,0,1.858,1.858,0,0,1-3.715,0,8,8,0,0,0-16,0A17.877,17.877,0,0,0,418.638,357.211Z" data-name="&lt;Path&gt;"/><path fill="url(#g)" d="M215,230.567v39.069c0,4.418,3.508,8.364,7.926,8.364h66.148c4.418,0,7.926-3.946,7.926-8.364V230.551a81.123,81.123,0,0,0,33.809-35.5A83.616,83.616,0,1,0,215,230.567Zm34.223-53.117A6.778,6.778,0,1,1,256,184.228,6.784,6.784,0,0,1,249.223,177.45ZM195.47,127.494a67.648,67.648,0,0,1,121.06,60.411,68.067,68.067,0,0,1-30.325,30.324c-.088.044-.2.1-.291.143A8.036,8.036,0,0,0,281,225.739V262H264V198.773a22.777,22.777,0,1,0-16,0V262H231V225.739a8.034,8.034,0,0,0-4.915-7.367c-.086-.047-.184-.1-.272-.143a67.655,67.655,0,0,1-30.343-90.735Z" data-name="&lt;Compound Path&gt;"/><path fill="url(#h)" d="M256,57.109a8,8,0,0,0,8-8V19.554a8,8,0,1,0-16,0V49.109A8,8,0,0,0,256,57.109Z" data-name="&lt;Path&gt;"/><path fill="url(#i)" d="M374.963,164H396v54.574a8,8,0,1,0,16,0V155.72a7.625,7.625,0,0,0-7.833-7.72h-29.2a8,8,0,1,0,0,16Z" data-name="&lt;Path&gt;"/><path fill="url(#j)" d="M108,226.574a8,8,0,0,0,8-8V164h21.037a8,8,0,1,0,0-16h-29.2A7.625,7.625,0,0,0,100,155.72v62.854A8,8,0,0,0,108,226.574Z" data-name="&lt;Path&gt;"/><path fill="url(#k)" d="M330.593,87.721a7.977,7.977,0,0,0,5.657-2.344L356.657,64.97a8,8,0,0,0-11.314-11.314L324.936,74.064a8,8,0,0,0,5.657,13.657Z" data-name="&lt;Path&gt;"/><path fill="url(#l)" d="M175.75,85.377a8,8,0,0,0,11.314-11.313L166.657,53.656A8,8,0,0,0,155.343,64.97Z" data-name="&lt;Path&gt;"/><path fill="url(#h)" d="M289.074 286H222.926a8 8 0 1 0 0 16h66.148a8 8 0 1 0 0-16zM289.074 310H222.926a8 8 0 1 0 0 16h66.148a8 8 0 1 0 0-16z" data-name="&lt;Path&gt;"/></g></svg>